#!OML:ASF F:\VICON\USERDATA\INSTALL\rory3\rory3.ASF
:FULLY-SPECIFIED
:DEGREES
63
root 0.8348395984103016 17.890211832814078 29.445251635839384 -3.194854714043818 -1.1955235842492746 2.71688952644797
lfemur 1.6255814761643492 -3.5512228409607163 -28.55221958443795
ltibia 21.949806076532564
lfoot -15.921510191761488 4.0152979369511135
ltoes 1.9814757367642817
rfemur -30.750404482894073 -0.6869792056721078 19.35705003722552
rtibia 54.07969480197795
rfoot -9.393383358233624 -10.06020218145376
rtoes 0.84455150136607
lowerback 10.285879378877354 -0.11551230343220031 -3.0490116661431506
upperback 0.7525028284977583 -0.48552822382585914 0.732435667909789
thorax -4.952817632226433 -0.16480578487774056 2.524666956646026
lowerneck -16.46667141823791 -2.6444974748674257 -2.6721842882136704
upperneck 20.401362467657044 -3.3450903379665546 1.3963043344055328
head 9.196401438906188 -1.6161942063324513 0.4932260738777575
lclavicle -1.8472856795587022e-15 1.002921623789915e-15
lhumerus -25.237311967195744 -3.5320073063511597 83.21093796957189
lradius 25.38961232048539
lwrist 5.300123216906152
lhand -27.0868402378272 23.438283444962032
lfingers 7.12502
lthumb -0.5039036811008893 53.41837949995362
rclavicle -1.8472856795587022e-15 1.002921623789915e-15
rhumerus -29.503240695160688 -18.722163431427266 -79.66793816708022
rradius 25.81484810716816
rwrist 4.697339394595602
rhand -17.26420606299865 22.30264338692542
rfingers 7.12502
rthumb 8.980252719902502 -7.481094710627015
64
root 0.7969335152015764 17.868085304861285 30.730181851052265 -2.431374516135159 -0.4622859729938713 3.3193240709203358
lfemur 5.371603561937025 -2.998451861888197 -29.032474316050987
ltibia 17.676612100306293
lfoot -16.33060597071077 3.517565102115924
ltoes 1.0569305555435649
rfemur -31.42443809462326 1.0340979890869608 17.94394671972855
rtibia 40.9157951830995
rfoot -8.908751410779681 -14.081459997410693
rtoes 0.03580201260890359
lowerback 9.933405221777539 -0.4580525826017704 -3.9190974410818518
upperback 0.6888839261255852 -1.0247995688171887 0.7546981576375796
thorax -4.805001333509082 -0.4167905006601692 3.0757183211324453
lowerneck -16.53173610998004 -2.6595664627449978 -2.755313042125456
upperneck 20.245500544596773 -3.3746396265589427 1.5570663016982411
head 9.152122778181244 -1.6207584993774484 0.5534619671853507
lclavicle -1.807115930258417e-15 1.040240936690835e-15
lhumerus -22.72826978904751 -4.859535146639275 82.8879757585729
lradius 26.741799480763298
lwrist 6.311196003554867
lhand -27.02096555689121 24.03758191555824
lfingers 7.12502
lthumb -0.44033997875677355 54.015962502568925
rclavicle -1.807115930258417e-15 1.040240936690835e-15
rhumerus -30.037456412541655 -18.73489272915018 -79.4812094001228
rradius 25.720417901692734
rwrist 4.784671908592637
rhand -17.089546330030714 22.642955659145994
rfingers 7.12502
rthumb 9.14877107509829 -7.131683267005829
65
root 0.7482606106040806 17.830607609772475 32.01998987217983 -1.6142628280392437 0.45043247179874646 3.917127321741956
lfemur 9.61282701651703 -2.5054435450171364 -29.163859957746947
ltibia 13.311813570352392
lfoot -16.30755789207276 2.7276258983772257
ltoes -0.47430860752572723
rfemur -30.75339897992715 3.542310438178599 16.207704962371224
rtibia 27.64594457118993
rfoot -8.751363085182989 -17.729443038047826
rtoes -0.7565172422521287
lowerback 9.520777429044408 -0.7775114649052087 -4.667803125214194
upperback 0.5772217283987233 -1.5164249926373343 0.792312228961629
thorax -4.649245179739028 -0.647914019806052 3.6281316458924806
lowerneck -16.559728713103404 -2.6674070951575093 -2.7821713957511407
upperneck 20.16590076626501 -3.398039274984847 1.7114300706626728
head 9.132283975846688 -1.6229923203143886 0.6047608219915852
lclavicle -1.5205704615256e-15 1.304676554652892e-15
lhumerus -20.38415487561418 -5.776700333924805 82.52513615038441
lradius 28.120619073319425
lwrist 7.236828358517942
lhand -26.974186994949616 24.395284082301316
lfingers 7.12502
lthumb -0.39522327671052904 54.370844595282776
rclavicle -1.5205704615256e-15 1.304676554652892e-15
rhumerus -30.548625445088017 -19.230546147664853 -79.03262844796052
rradius 25.314085557296206
rwrist 5.371822627171285
rhand -16.954551551837596 23.17354656750324
rfingers 7.12502
rthumb 9.279033304836808 -6.595661554051351
66
root 0.6901181035723427 17.76797355459009 33.28279230771236 -0.994856987473596 1.3673767934522165 4.333272114886551
lfemur 13.53173310807194 -2.421738425701063 -28.982234896783684
ltibia 10.467349004443108
lfoot -16.101413243822353 1.7797684462939907
ltoes -2.5608521009813696
rfemur -29.482448251058837 5.714368305163822 14.918246020930649
rtibia 18.02061775318225
rfoot -9.101720091818763 -19.245929761919776
rtoes -2.1359862343188865
lowerback 9.234592146884742 -1.0414299804088847 -5.185335380805489
upperback 0.474299734446744 -1.91157876073916 0.8802214646684337
thorax -4.540539059890294 -0.8342591783627789 4.112351817420631
lowerneck -16.618183256439 -2.6820235844821676 -2.8118286784161715
upperneck 20.15228326612841 -3.4239400625552685 1.8312052918451713
head 9.141748889297059 -1.629416392824477 0.6438424755738987
lclavicle -1.1581163829590534e-15 1.6390059504243712e-15
lhumerus -18.56402506228285 -6.321352546679575 82.28173056953634
lradius 29.402050757509354
lwrist 7.903659611485304
lhand -27.09893047519901 24.042149520936515
lfingers 7.12502
lthumb -0.5157100625633844 54.01564847000914
rclavicle -1.1581163829590534e-15 1.639005950424371e-15
rhumerus -31.060127296508817 -20.13275242942182 -78.36968761465866
rradius 24.671133119933085
rwrist 6.2355411348356995
rhand -16.98182206636141 23.576270595369962
rfingers 7.12502
rthumb 9.252736867090459 -6.196432100812366
